<svg width="51" height="51" viewBox="0 0 51 51" fill="none" xmlns="http://www.w3.org/2000/svg">
<g style="mix-blend-mode:lighten">
<path d="M16.42 25.4005L16.378 32.6383L8.78896 25.0506L0.707106 16.9702L8.83721 8.83865L17.1744 0.5H33.9836H50.5V0.823125C50.5 2.0296 49.9787 4.49868 49.3818 6.04683L49.8484 6.22669L49.3818 6.04685C49.0894 6.80562 48.4332 8.07176 47.9342 8.83594L47.9342 8.83599C45.7211 12.2261 42.6006 14.5843 38.7586 15.7718L38.9062 16.2495L38.7586 15.7718L37.1409 16.2719L33.977 16.3027L33.6359 15.9617L33.6339 16.3061L27.0889 16.37L16.9639 16.4688L16.4716 16.4736L16.4688 16.9659L16.42 25.4005ZM17.023 34.6973L17.3641 35.0383L17.3661 34.6939L23.9111 34.63L34.0361 34.5312L34.5284 34.5264L34.5312 34.0341L34.58 25.5995L34.622 18.3617L42.211 25.9494L50.2929 34.0298L42.1628 42.1614L33.8256 50.5H17.0164H0.5V50.1769C0.5 49.7719 0.62322 48.7513 0.780745 47.9207C1.92002 41.9152 6.2921 37.0671 12.2414 35.2282L13.8591 34.7281L17.023 34.6973Z" fill="#7F61F4"/>
<path d="M16.42 25.4005L16.378 32.6383L8.78896 25.0506L0.707106 16.9702L8.83721 8.83865L17.1744 0.5H33.9836H50.5V0.823125C50.5 2.0296 49.9787 4.49868 49.3818 6.04683L49.8484 6.22669L49.3818 6.04685C49.0894 6.80562 48.4332 8.07176 47.9342 8.83594L47.9342 8.83599C45.7211 12.2261 42.6006 14.5843 38.7586 15.7718L38.9062 16.2495L38.7586 15.7718L37.1409 16.2719L33.977 16.3027L33.6359 15.9617L33.6339 16.3061L27.0889 16.37L16.9639 16.4688L16.4716 16.4736L16.4688 16.9659L16.42 25.4005ZM17.023 34.6973L17.3641 35.0383L17.3661 34.6939L23.9111 34.63L34.0361 34.5312L34.5284 34.5264L34.5312 34.0341L34.58 25.5995L34.622 18.3617L42.211 25.9494L50.2929 34.0298L42.1628 42.1614L33.8256 50.5H17.0164H0.5V50.1769C0.5 49.7719 0.62322 48.7513 0.780745 47.9207C1.92002 41.9152 6.2921 37.0671 12.2414 35.2282L13.8591 34.7281L17.023 34.6973Z" stroke="white"/>
</g>
</svg>
